<svg xmlns="http://www.w3.org/2000/svg" xmlns:xlink="http://www.w3.org/1999/xlink" viewBox="0 0 283.46 283.46"><defs><style>.cls-1{fill:none;}.cls-2{fill:#8abd24;}.cls-3{clip-path:url(#clip-path);}.cls-4{fill:#fff;}</style><clipPath id="clip-path"><rect class="cls-1" width="283.46" height="283.46"/></clipPath></defs><title>Asset 4</title><g id="Layer_2" data-name="Layer 2"><g id="Laag_1" data-name="Laag 1"><rect class="cls-2" width="283.46" height="283.46"/><g class="cls-3"><path class="cls-4" d="M230,202.86a26.68,26.68,0,0,0-5.48,2.09q-.8,0-3.82,2.73-2.67,2.59-2.67,3a30.67,30.67,0,0,0-1.87,6.2,64.16,64.16,0,0,1-.43,6.91,15.61,15.61,0,0,0,.86,2.24c0,.33.84,1.68,2.52,4,2.5,1.54,4.38,2.74,5.62,3.61.25.24,1.57.57,4,1q3.24,1.52,6.48,2.74a12.93,12.93,0,0,1,2.6,2.52L234,242.27l-2-.07c-1.68,0-2.66-.2-2.95-.58a28.83,28.83,0,0,1-6.06-4,11.87,11.87,0,0,0-2.16,1.8,13.66,13.66,0,0,0-2.52,3.46,31.8,31.8,0,0,1-3.1,2.52,31.75,31.75,0,0,0-2.52,3.31q0,.23,1.23,1.44a16,16,0,0,0,3.46,2.88l5.83,2.45c0,.29,1.59.58,4.76.87h4.9l4.61.21.79-.07a17.06,17.06,0,0,0,4.61-.86q1.44-.15,7.71-4.11,3-5,3-5.55.5,0,1.22-8.07v-3.31l-1.29-3.24a29.48,29.48,0,0,0-4.83-5c-.1-.24-1.28-.88-3.53-1.94a60.74,60.74,0,0,0-7.42-1.87c-.1,0-1.8-1.13-5.12-3.39l1.59-1.87a19.46,19.46,0,0,1,2.66-.58l3,.29q.93,0,6,4l.43-.36a26.71,26.71,0,0,0,4.18-3.74l5.76-6.56v-.07L255,208.84a25.25,25.25,0,0,0-3.39-3,24.3,24.3,0,0,0-3.75-1.94c-2.64-.29-5.07-.63-7.27-1l-3.6.21-3.47-.43Z"/><path class="cls-4" d="M187.15,204.37l-3.39-.22-2.81.51a21.4,21.4,0,0,0-3.89.5l.14,3.32a44.31,44.31,0,0,0-.5,6.84q.21,5.34.21,8.07v.29l-.14,5.84q.28,5.53.29,14.19l-.58,3.38.65,3.61-.07,3.17.07.22,2.59.14A63.91,63.91,0,0,0,187,255c1.88,0,4.08-.12,6.63-.36l3.32.43,6.48-.36a50,50,0,0,1,6.06-.5l.42-.07a17.42,17.42,0,0,0,.94-3.46l-.22-3.53.22-3.68-.58-3.81-6.62.86-3.25-.5-3.31.14-3.24-.22-.36-3.45a69.38,69.38,0,0,1,.58-7.07l-.08-.36-.07-3.09.22-3.47a55.27,55.27,0,0,1-.44-6.91v-.14l-.07-.08.07-.07v-2.16l.22-5.19v-2.88c0-.14-1.1-.48-3.32-1Z"/><path class="cls-4" d="M146.76,222.31l.72,2.09a21.75,21.75,0,0,1,1.73,4.83,24.13,24.13,0,0,0,1.51,5l-4.32.22-3.46-.07h-.07l.36-2.67a20.94,20.94,0,0,1,1.44-3.89,30.69,30.69,0,0,1,2-5.55Zm1.94-17.8-3.53-.21a60.06,60.06,0,0,0-6.91.57l-1.81,3-2.23,6.55L131,220.73c-.87,2.64-1.56,4.53-2.09,5.69a68.47,68.47,0,0,1-3.24,7.78,57.66,57.66,0,0,1-3,8.36q-2.52,7.27-4.18,11.45v.08l3.53.79h4.11q5.91,0,10.3-.36l.07-.07a76.57,76.57,0,0,0,2.17-7.43l3.09.72,6.35-.36,3.17.22,3.17-.58,1.37,3.32a30,30,0,0,0,1.08,4.11l11.09.64.15-.07a30.72,30.72,0,0,0,6.77-.57l-.36-1.66q0-1.59-1.8-4.83a23.11,23.11,0,0,0-1.23-4.18,29.38,29.38,0,0,1-2-5.76l-3.39-8.94a50.27,50.27,0,0,0-3.53-7.42c-.87-2.54-1.51-4.27-1.94-5.18a19.3,19.3,0,0,1-1.73-5l-3-6.41c0-.19-1.18-.53-3.53-1Z"/><path class="cls-4" d="M88.12,204.37h-.58l-3.1-.07-2.88.5a33.27,33.27,0,0,0-.65,7.13L81.2,216q0,1.88-.57,10l.21,3.6L80.77,233l.36,3.47a89.12,89.12,0,0,0-.5,9.07v.08c0,2.35.11,5.06.35,8.14a11.24,11.24,0,0,0,2.67.72q0,.28,8.07.57l4.54-.28h1.66l4.46-.15,10.38.22,3.24-.72a19.83,19.83,0,0,0,.94-3.39c-.34-2.35-.51-3.75-.51-4.18v-2.23a37.09,37.09,0,0,0-.21-4.11l-6.41.65-3.25-.29-3.24.15a38.8,38.8,0,0,0-6.7-.51h-.07v-4.61a51.79,51.79,0,0,0,7.13.51l3.46-.36c1.06.09,2.62.14,4.68.14h1.44l.51-.07c.14,0,.46-1.08.94-3.25l-.15-1.29a72.86,72.86,0,0,1-.65-8.36v-.07l-.07-.08h-2.38l-4.39.15-6.63-.15H97.27l-.22.08-.14-4.18a47.26,47.26,0,0,1,7.28-.65,53.6,53.6,0,0,1,7.27.57l3.25-.14c.09,0,.14-.12.14-.36l.93-9.87-.71-3.24-3.25-.8-3.46.44-6.77-.58-3.46.29-3.31-.29q-3.54.28-6.7.29"/><path class="cls-4" d="M56.65,220.29a17.73,17.73,0,0,1,2.08,2.15,15.27,15.27,0,0,1,1.73,2.88q.23,0,.72,3.87L61,230.56a17.41,17.41,0,0,1-1.44,5.52q0,.3-2.52,2.37c0,.29-1.47.75-4.4,1.37H46.13a55.21,55.21,0,0,1-.44-6.75l.51-3.52L45.69,226c0-1.72.12-3.95.36-6.67v-.08a46.44,46.44,0,0,1,10.6,1M30.2,205.38a26.47,26.47,0,0,0-.5,3.23l.07,2.81-.29,4.1c.14,3,.22,5.18.22,6.62l-.22,7.48a102.1,102.1,0,0,1,.58,10.22l-.44,3.88.51,3.1a71.6,71.6,0,0,0,.43,7.41c1.68.32,4,.6,7,.86h1.87l5-.5q5.4-.17,9.8-.51h3l4-.71a31.06,31.06,0,0,0,8-4c.44-.14,1.59-1.18,3.46-3.09l3.61-5.69c.28-.14.74-1.39,1.36-3.74.15-2.45.34-5,.58-7.56a50.11,50.11,0,0,1-.43-6,14.37,14.37,0,0,0-1.3-4,19.66,19.66,0,0,0-1.87-4.53A11.86,11.86,0,0,0,72,211.21c0-.39-2-1.63-5.91-3.75A30.25,30.25,0,0,0,59,205.31l-3.46.07-3.74-.51H47.92l-2.8-.07a40,40,0,0,0-7.57-.72Z"/><path class="cls-4" d="M241.11,122.78l-4.32-.39c-2.61.72-3.91,1.14-3.91,1.27l.58,9.46v.29l-.19,4.49.19,5.56v4.1l.59,4.78v.58a18.91,18.91,0,0,1-.88,4.49,27.74,27.74,0,0,1-1.76-4.19,58.42,58.42,0,0,0-7.22-11.91q-.67-.76-4.58-9.55a62.62,62.62,0,0,1-5.46-8.1l-3.42-.68-9.94-.59L192,123.46a14.61,14.61,0,0,1-.09,2.64q-.3,15.51-.69,15.51l-.48,15.12q.67,4.77.68,5.66v3.41l.1.39-.1.1-.29,6.63v2.34l.09.39-.09.1-.1,4.78q.58,4.2,1,9.27c.26.13,1.6.52,4,1.17l8.88.19a28.15,28.15,0,0,0,8.59-1.27l-1-4.38.59-4.69q0-2.92-1.08-13.56l.49-4.58-.19-4.2v-.1l.29.2a63,63,0,0,0,4.5,7.12q2.64,5,7,12.1c1.23,3.19,2.18,5.14,2.83,5.85a21.68,21.68,0,0,1,3.82,6.24,73.67,73.67,0,0,0,10.56,1H244l.88.1a52.28,52.28,0,0,0,8.5-.78c.2,0,.42-1.86.68-5.57v-2.33a59,59,0,0,1,.88-11.32v-.1l-.09-.09-.1-6.44v-1.76l.39-8.09v-1.66q-.39-11.22-.78-15v-4.29q0-4.68-.49-9.75c0-.33-.52-.59-1.57-.78q-1.77-.89-6.76-.88Z"/><path class="cls-4" d="M161.89,123.27a114.45,114.45,0,0,0-.78,13.17v1.17l.39,4.78-.39,9.46.2,4.78-.2,4.59.2,4.78-.49,4.77c.32,2.87.58,6,.78,9.47l-.49,4.87.69,4.79a26.22,26.22,0,0,0,8.48,1.26l5.56-.29h3.32a43.32,43.32,0,0,0,4.58-1.07c.2,0,.43-1.56.69-4.69l-.49-4.78.58-5V174q-.68-12.88-.68-18.64,0-3.12.39-8.19l-.29-5.27v-1.17l.49-11.8-.2-5.27c0-.13-1.21-.45-3.61-1q0-.29-10.24-.58a61,61,0,0,0-8.49,1.17"/><path class="cls-4" d="M139.77,122.59h-3.9a30,30,0,0,0-4.2,1c-.13,0-.38,1.59-.78,4.78l.49,4.68-.29,4.88.58,14.14v.4a40.73,40.73,0,0,0-.58,5.16v2.93l-.2,6.73-3.21,3.81c0,.19-1.83.42-5.47.68l-4.87-.39a38.12,38.12,0,0,1-3.71-4.1q0-1.75-.78-10,.68-4.89.68-5.76v-3l.1-1-.88-9.46.49-6.05v-8.39a68,68,0,0,0-13.56-1.17,51.34,51.34,0,0,0-9.17,1.37,19.6,19.6,0,0,0-1,4.19l.69,4.59v.09l-.1.1-.88,13.46.88,4.68-.49,4.49.59,5.17-.1,3.51.19,5.08.59,2.63q0,2.06,3.7,9.85.11,1.08,2.64,3.61a13.85,13.85,0,0,0,3.9,3.22c.59.65,2.47,1.56,5.66,2.73a47.44,47.44,0,0,0,12.19,2h1.66l6.24-.11q10-1.95,14.34-3.21l3.52-2.93a84,84,0,0,0,6.34-7.7l2.92-9.86-.09-.68v-3.81a48.35,48.35,0,0,1,.87-4.78l-.1-4.68.3-4.49-.69-5.26v-3.12a76.83,76.83,0,0,1,.59-10.05,41.43,41.43,0,0,1-.88-8.58v-.1l-.09-.1a31.79,31.79,0,0,0-9-1.56Z"/><path class="cls-4" d="M52.44,122.68l-4.68-.38-4.69.38H43l-.1-.09-9-.39-4.3,1c-.19,0-.52,1.6-1,4.78,0,2.6-.1,5.76-.29,9.46l1.26,4.3v.09l3.81-.29,12.29.68c-.26,2.41-.46,5.53-.58,9.37l.19,4.78-.39,4.78,1,4.78-.49,4.78.39,4.78-.39,4.78a70.5,70.5,0,0,1,.49,7.41v1.95c0,.2,1.49.49,4.48.88h3.22a51.24,51.24,0,0,1,5.56.68,59,59,0,0,1,8.59-1.36l.49-4.88-.4-4.78a29.39,29.39,0,0,0,1-6.73v-2q-.3-6.15-.49-15l.39-4.78a70.22,70.22,0,0,0-.88-9.66l2.44-.1H75l5.46-.29,3.8.68c.26,0,.45-2,.59-5.94l.09-8.88-.29-3.9a44,44,0,0,0-4.78-.88l-4,.09-5.07-.58Z"/><path class="cls-4" d="M226.8,51.49a26.1,26.1,0,0,1,1.93,4.75l-1.93,4.53c0,.23-1,.57-3.05,1q-1.59,1-7.59,1-.34-6.33-.34-12.11v-.12a101.84,101.84,0,0,1,11,.91m-36.58-21v5a17.56,17.56,0,0,1-.56,3.63q-.57,4.53-.91,18.68l.79,5.67-.22,5.32.22,5.66-.79,5.44.45,12.91v3.62a55.2,55.2,0,0,0,1,5.55l-.23,5.1q0,.23,5.22,1a47.3,47.3,0,0,0,10.53,1,54.23,54.23,0,0,0,9.74-1.7,40.65,40.65,0,0,0,.79-4.76l-.34-5.1.12-2.38V90.56l-.12-2.94.45-4.76,8.5-.34h3.06l7.81-1.36c2.27,0,3.81-.34,4.65-1A28,28,0,0,0,248,75.39a46.14,46.14,0,0,0,4.31-7,56.08,56.08,0,0,0,2.83-7V57l-1.36-10.65q-1.81-6-2.27-6a33,33,0,0,0-6.56-6.23q0-.67-7.82-3.17a14.65,14.65,0,0,0-5.78-1H229a54.06,54.06,0,0,0-5.67.79l-5.66-1.24h-3.06l-19-.57c-3.33.83-5.1,1.36-5.33,1.59"/><path class="cls-4" d="M144.86,51.37l3.29,1.7c1,.38,2.34,1.55,3.85,3.52.83.67,1.54,2.07,2.15,4.19.6,1,1.06,3.51,1.36,7.58A61.73,61.73,0,0,1,153,77.88q0,.45-3,5.1,0,.45-4.3,1.92,0,.57-6.34.9l-4.65-.45a16.4,16.4,0,0,1-4.53-1.7c-.68,0-1.73-1.17-3.17-3.51q-.9-1-2.27-5.32c-.22,0-.45-2.11-.67-6.34l.22-4.53a13.34,13.34,0,0,1,1.48-4.19q0-.69,3.28-5.1a44.25,44.25,0,0,1,5-3.17l5.33.34ZM132.18,27h-4l-7.82,2.15a30,30,0,0,0-7,2.83,5.6,5.6,0,0,0-3.06,2.26,36.28,36.28,0,0,1-6.46,5.67q-1,.45-3.62,4.64c-.6.45-1.17,2.08-1.7,4.87a64.36,64.36,0,0,1-2.72,7.47l-.11,5.22.22,6.22-.33,5.78,1.7,11.1c0,.23,1.69,3.58,5.09,10.08,0,.3,1.32,1.93,4,4.87l9.86,7q11.33,3.06,17.44,4.19a50.87,50.87,0,0,1,6.68-1h9.29a34.55,34.55,0,0,0,7-1.36,89.11,89.11,0,0,1,10.42-4.87l6.12-5.43c2.56-2.34,4.08-4,4.53-5.1,1-1.13,2.3-3.59,4-7.36a99.26,99.26,0,0,0,2.49-11.89l-.79-12.69V57.15a18.28,18.28,0,0,0-1.81-4.3A66.38,66.38,0,0,0,178.05,45a38.17,38.17,0,0,0-5.78-7.24q-.68-.91-6.91-5.1-3.51-2.83-4.64-2.83a20.61,20.61,0,0,0-7-1.59c-1.66-.23-4.72-.75-9.18-1.59h-4.07Z"/><path class="cls-4" d="M56.32,29.63l-5.44-.45-5.43.45h-.11l-.12-.11L34.8,29.07l-5,1.12c-.23,0-.61,1.86-1.13,5.56,0,3-.12,6.68-.34,11l1.47,5v.11l4.41-.34,14.27.79q-.45,4.2-.67,10.87l.22,5.55-.45,5.55,1.13,5.55-.56,5.55.45,5.55-.45,5.55a81.93,81.93,0,0,1,.56,8.61v2.27q0,.33,5.21,1h3.74a59.06,59.06,0,0,1,6.46.8,67.69,67.69,0,0,1,10-1.59l.57-5.66-.45-5.55a34.31,34.31,0,0,0,1.13-7.82V86.15Q75,79,74.78,68.7l.45-5.55a83.52,83.52,0,0,0-1-11.21L77,51.83h5.44l6.35-.34,4.41.79q.45,0,.68-6.91L94,35.07l-.34-4.53a51,51,0,0,0-5.54-1l-4.65.11L77.61,29Z"/></g></g></g></svg>