<svg xmlns="http://www.w3.org/2000/svg" viewBox="0 0 227.91 229.85"><defs><style>.cls-1{fill:#8bbe28;}</style></defs><title>Asset 1</title><g id="Layer_2" data-name="Layer 2"><g id="Laag_1" data-name="Laag 1"><path class="cls-1" d="M201.68,176.17a26.68,26.68,0,0,0-5.48,2.09q-.8,0-3.81,2.74c-1.78,1.73-2.67,2.73-2.67,3a29.81,29.81,0,0,0-1.87,6.2,64.6,64.6,0,0,1-.44,6.92,15.18,15.18,0,0,0,.87,2.23c0,.34.84,1.68,2.52,4,2.5,1.53,4.37,2.74,5.62,3.6.24.24,1.56.58,4,1q3.24,1.51,6.49,2.74a13.06,13.06,0,0,1,2.59,2.52l-3.82,2.3-1.94-.07c-1.68,0-2.67-.19-3-.58a28,28,0,0,1-6.05-4,11.49,11.49,0,0,0-2.16,1.8,14,14,0,0,0-2.52,3.46,30,30,0,0,1-3.1,2.52,35,35,0,0,0-2.53,3.32q0,.21,1.23,1.44a16.82,16.82,0,0,0,3.46,2.88l5.83,2.45c0,.29,1.59.57,4.76.86h4.9l4.61.22.79-.07a16.6,16.6,0,0,0,4.62-.87q1.44-.14,7.71-4.1,3-5.06,3-5.55.51,0,1.23-8.07v-3.31l-1.3-3.25a29.08,29.08,0,0,0-4.83-5c-.09-.24-1.27-.89-3.53-1.94a60.58,60.58,0,0,0-7.42-1.88c-.1,0-1.8-1.13-5.12-3.38l1.59-1.88a19.93,19.93,0,0,1,2.67-.58l3,.29q.94,0,6,4L218,194a26.92,26.92,0,0,0,4.18-3.75l5.77-6.56v-.07l-1.23-1.44a24.5,24.5,0,0,0-3.38-3,26.52,26.52,0,0,0-3.75-1.94c-2.64-.29-5.07-.62-7.28-1l-3.6.22-3.46-.44Z"/><path class="cls-1" d="M158.8,177.68l-3.38-.21-2.82.5a19.65,19.65,0,0,0-3.89.51l.15,3.31a43.28,43.28,0,0,0-.51,6.85q.22,5.33.22,8.07V197l-.15,5.84q.3,5.55.29,14.19l-.57,3.39.65,3.61-.08,3.16.08.22,2.59.14a64.3,64.3,0,0,0,7.28.8q2.81,0,6.63-.36l3.31.43,6.49-.36a48.22,48.22,0,0,1,6-.51l.43-.07a18,18,0,0,0,.94-3.45l-.22-3.54.22-3.67-.58-3.82-6.63.87-3.24-.51-3.32.15-3.24-.22-.36-3.46a69.24,69.24,0,0,1,.58-7.06l-.07-.36-.07-3.1.21-3.46a55.26,55.26,0,0,1-.43-6.91v-.15l-.07-.07.07-.07v-2.17l.22-5.18v-2.88c0-.15-1.11-.49-3.32-1Z"/><path class="cls-1" d="M118.41,195.62l.72,2.09a21.35,21.35,0,0,1,1.73,4.83,24.08,24.08,0,0,0,1.52,5.05l-4.33.21-3.46-.07h-.07l.36-2.66a20.9,20.9,0,0,1,1.44-3.9,30.49,30.49,0,0,1,2-5.55Zm2-17.79-3.53-.22a58.28,58.28,0,0,0-6.92.58l-1.8,2.95-2.23,6.56L102.63,194a58,58,0,0,1-2.09,5.69,66,66,0,0,1-3.24,7.78,57.13,57.13,0,0,1-3,8.36c-1.69,4.86-3.08,8.67-4.18,11.46v.07l3.53.79h4.11q5.91,0,10.3-.36l.07-.07a73,73,0,0,0,2.16-7.42l3.1.72,6.34-.36,3.17.21,3.17-.57,1.37,3.31a33.84,33.84,0,0,0,1.08,4.11l11.1.65.14-.07a30.16,30.16,0,0,0,6.78-.58l-.36-1.66c0-1-.61-2.66-1.81-4.82a22.32,22.32,0,0,0-1.22-4.18,28.62,28.62,0,0,1-2-5.77l-3.39-8.93a47.89,47.89,0,0,0-3.53-7.42q-1.29-3.82-1.94-5.19a19.59,19.59,0,0,1-1.73-5l-3-6.41c0-.2-1.17-.53-3.53-1Z"/><path class="cls-1" d="M59.77,177.68h-.58l-3.09-.07-2.89.51a33.27,33.27,0,0,0-.65,7.13l.29,4.11q0,1.88-.57,9.94l.21,3.6-.07,3.46.36,3.46a89.3,89.3,0,0,0-.5,9.08V219c0,2.35.12,5.07.36,8.14a10.13,10.13,0,0,0,2.66.72q0,.3,8.07.58l4.54-.29h1.66L74,228l10.37.21,3.24-.72a19.86,19.86,0,0,0,.94-3.38c-.33-2.36-.5-3.75-.5-4.18v-2.24a36.77,36.77,0,0,0-.22-4.1l-6.41.65-3.24-.29-3.25.14a39.91,39.91,0,0,0-6.7-.5H68.2V209a53.51,53.51,0,0,0,7.14.5l3.45-.36c1.06.1,2.62.14,4.69.14h1.44l.5-.07c.15,0,.46-1.08.94-3.24l-.14-1.3a70.49,70.49,0,0,1-.65-8.36v-.07l-.08-.07H83.12l-4.4.14-6.63-.14H68.92l-.21.07L68.56,192a48.66,48.66,0,0,1,7.28-.65,53.89,53.89,0,0,1,7.28.58l3.24-.14c.1,0,.14-.12.14-.36l.94-9.88-.72-3.24-3.24-.79L80,178l-6.78-.57-3.45.28-3.32-.28c-2.35.19-4.59.28-6.7.28"/><path class="cls-1" d="M28.3,193.6a17,17,0,0,1,2.09,2.16,15.6,15.6,0,0,1,1.73,2.87c.14,0,.38,1.29.72,3.88l-.15,1.36a17.46,17.46,0,0,1-1.44,5.53,11.65,11.65,0,0,1-2.52,2.37c0,.29-1.46.74-4.4,1.36H17.78a54.88,54.88,0,0,1-.43-6.75l.5-3.51-.5-3.52q0-2.58.36-6.68v-.07a46.48,46.48,0,0,1,10.59,1M1.86,178.69a27.38,27.38,0,0,0-.51,3.24l.07,2.81-.29,4.1c.15,3,.22,5.18.22,6.61l-.22,7.49a99.18,99.18,0,0,1,.58,10.21L1.28,217l.5,3.09a70.24,70.24,0,0,0,.44,7.41c1.67.32,4,.61,7,.87h1.87l5-.51q5.4-.17,9.8-.5h3l4-.72a31.16,31.16,0,0,0,8-4,17,17,0,0,0,3.45-3.09L48,214c.29-.15.75-1.39,1.37-3.74q.21-3.68.57-7.56a50.25,50.25,0,0,1-.43-6,14.37,14.37,0,0,0-1.29-4,19.35,19.35,0,0,0-1.88-4.53,12.1,12.1,0,0,0-2.66-3.53q0-.57-5.91-3.74a30.34,30.34,0,0,0-7.14-2.16l-3.45.07-3.75-.5H19.58l-2.81-.07a40,40,0,0,0-7.56-.73Z"/><path class="cls-1" d="M212.76,96.1l-4.31-.39A18.3,18.3,0,0,0,204.53,97l.59,9.47v.29l-.2,4.49.2,5.56v4.09l.58,4.78v.59a19.24,19.24,0,0,1-.87,4.49,27.54,27.54,0,0,1-1.76-4.2,58.75,58.75,0,0,0-7.22-11.9q-.67-.78-4.58-9.56A63.08,63.08,0,0,1,185.8,97l-3.41-.68-9.95-.58-8.78,1.07a12.69,12.69,0,0,1-.1,2.63q-.28,15.51-.68,15.51l-.49,15.13c.46,3.18.68,5.07.68,5.65v3.42l.1.38-.1.1-.29,6.64v2.34l.1.39-.1.1-.09,4.78c.38,2.79.71,5.88,1,9.26.26.13,1.59.52,4,1.17l8.87.2a28.46,28.46,0,0,0,8.59-1.27l-1-4.39.58-4.68q0-2.92-1.07-13.56l.49-4.59-.2-4.19v-.1l.29.2a67,67,0,0,0,4.5,7.12q2.64,5,7,12.09c1.24,3.19,2.18,5.14,2.84,5.86a21.9,21.9,0,0,1,3.81,6.24,75.28,75.28,0,0,0,10.56,1h2.64l.88.09a52.39,52.39,0,0,0,8.51-.78q.28,0,.68-5.56V155.6a58.15,58.15,0,0,1,.88-11.31v-.1l-.1-.1-.1-6.44V135.9l.39-8.1v-1.66q-.39-11.22-.78-15v-4.29c0-3.13-.16-6.37-.48-9.76,0-.32-.53-.58-1.57-.78-1.18-.58-3.43-.87-6.77-.87Z"/><path class="cls-1" d="M133.55,96.58a114.45,114.45,0,0,0-.78,13.17v1.17l.39,4.78-.39,9.46.19,4.78-.19,4.59.19,4.78-.49,4.78c.33,2.86.59,6,.78,9.46l-.48,4.88.68,4.78a26,26,0,0,0,8.49,1.27l5.56-.3h3.31a40.43,40.43,0,0,0,4.59-1.07c.19,0,.42-1.56.68-4.68l-.49-4.78.59-5v-1.37q-.69-12.87-.68-18.63c0-2.08.12-4.81.38-8.19l-.29-5.27v-1.17l.49-11.81-.2-5.27a14.91,14.91,0,0,0-3.6-1c0-.2-3.42-.39-10.25-.59a61.14,61.14,0,0,0-8.48,1.17"/><path class="cls-1" d="M111.42,95.9h-3.9a30.54,30.54,0,0,0-4.19,1c-.13,0-.39,1.59-.78,4.78l.49,4.68-.3,4.88.59,14.14v.39a39.53,39.53,0,0,0-.59,5.17v2.93l-.19,6.73-3.22,3.8q0,.3-5.46.69L89,144.68a40.91,40.91,0,0,1-3.71-4.1q0-1.76-.78-10.05c.46-3.25.68-5.17.68-5.76v-3l.1-1-.88-9.47.49-6V96.88a67.9,67.9,0,0,0-13.56-1.17,51.18,51.18,0,0,0-9.17,1.36,20.16,20.16,0,0,0-1,4.2l.68,4.58v.1l-.1.1-.88,13.46.88,4.68-.49,4.49.59,5.17-.1,3.51.2,5.07.58,2.64q0,2,3.71,9.85c.06.71.94,1.92,2.64,3.61a13.88,13.88,0,0,0,3.9,3.22c.58.65,2.47,1.56,5.65,2.73a47.38,47.38,0,0,0,12.2,2h1.66l6.24-.1q10-2,14.34-3.22l3.51-2.93a82.69,82.69,0,0,0,6.34-7.7l2.93-9.85-.1-.69v-3.8a46.76,46.76,0,0,1,.88-4.78l-.1-4.68.29-4.49-.68-5.27V115.8a78.76,78.76,0,0,1,.58-10,42,42,0,0,1-.87-8.58v-.1l-.1-.09a31.48,31.48,0,0,0-9-1.57Z"/><path class="cls-1" d="M24.1,96l-4.69-.39L14.73,96h-.1l-.09-.1-9-.39-4.29,1c-.19,0-.52,1.59-1,4.78q0,3.9-.29,9.46L1.27,115v.1l3.8-.3,12.29.69q-.39,3.61-.58,9.36l.2,4.79-.4,4.77,1,4.78L17.07,144l.39,4.78-.39,4.78a67.89,67.89,0,0,1,.49,7.42v1.95c0,.19,1.5.48,4.49.88h3.21a48.73,48.73,0,0,1,5.57.68,59.12,59.12,0,0,1,8.58-1.37l.49-4.87-.39-4.78a29.38,29.38,0,0,0,1-6.73v-2.06c-.19-4.09-.36-9.1-.48-15l.38-4.79a71.42,71.42,0,0,0-.87-9.65l2.44-.1h4.68l5.46-.3,3.81.69q.39,0,.58-6l.1-8.88-.3-3.9a47.48,47.48,0,0,0-4.77-.88l-4,.1-5.07-.59Z"/><path class="cls-1" d="M198.46,24.8a26.63,26.63,0,0,1,1.92,4.76l-1.92,4.53q0,.34-3.06,1-1.59,1-7.59,1-.34-6.35-.34-12.12V23.9a99.8,99.8,0,0,1,11,.9M161.88,3.85v5a17,17,0,0,1-.57,3.62q-.57,4.53-.91,18.69l.8,5.66L161,42.13l.23,5.67-.8,5.43.46,12.91v3.63a55.75,55.75,0,0,0,1,5.55l-.23,5.09q0,.24,5.21,1a47.36,47.36,0,0,0,10.53,1,52.35,52.35,0,0,0,9.74-1.7,38.43,38.43,0,0,0,.8-4.76l-.35-5.09.12-2.38V63.88l-.12-3,.46-4.75,8.49-.34h3.06l7.82-1.36c2.26,0,3.81-.34,4.64-1a28.27,28.27,0,0,0,7.59-4.76,46.41,46.41,0,0,0,4.3-7,54.25,54.25,0,0,0,2.83-7V30.35l-1.36-10.64q-1.82-6-2.26-6a32.42,32.42,0,0,0-6.57-6.23C216.58,7,214,6,208.77,4.3a14.66,14.66,0,0,0-5.78-1h-2.38a50.9,50.9,0,0,0-5.66.79l-5.67-1.25h-3.05l-19-.56c-3.32.83-5.09,1.35-5.32,1.58"/><path class="cls-1" d="M116.52,24.69l3.28,1.7q1.59.57,3.85,3.51,1.25,1,2.15,4.19.92,1.47,1.36,7.59a59.07,59.07,0,0,1-2.49,9.51c0,.31-1,2-2.94,5.1q0,.45-4.31,1.92,0,.57-6.34.91l-4.64-.45a16.53,16.53,0,0,1-4.53-1.7q-1,0-3.17-3.51c-.61-.68-1.36-2.45-2.27-5.33-.23,0-.45-2.11-.68-6.34L96,37.26a13.58,13.58,0,0,1,1.47-4.19c0-.45,1.09-2.15,3.29-5.09a41.55,41.55,0,0,1,5-3.18l5.32.34ZM103.83.34h-4L92.05,2.49a30.46,30.46,0,0,0-7,2.83A5.61,5.61,0,0,0,82,7.59a36.09,36.09,0,0,1-6.45,5.66q-1,.45-3.62,4.65-.91.68-1.7,4.87a67.57,67.57,0,0,1-2.72,7.47l-.12,5.21.23,6.23-.34,5.78L69,58.55q0,.35,5.1,10.08c0,.31,1.31,1.93,4,4.88l9.85,7q11.33,3,17.45,4.19a50.58,50.58,0,0,1,6.67-1h9.3a35.37,35.37,0,0,0,7-1.36,89.88,89.88,0,0,1,10.42-4.87L144.83,72q3.85-3.51,4.53-5.09c1-1.14,2.3-3.59,4-7.37a96.84,96.84,0,0,0,2.5-11.89L155,35V30.47a17.79,17.79,0,0,0-1.81-4.31q-2.94-7.14-3.51-7.81a38.39,38.39,0,0,0-5.77-7.25Q143.24,10.2,137,6q-3.51-2.83-4.65-2.84a20.76,20.76,0,0,0-7-1.58q-2.49-.34-9.17-1.59H112.1Z"/><path class="cls-1" d="M28,3l-5.44-.46L17.1,3H17l-.12-.12L6.46,2.38l-5,1.13q-.33,0-1.13,5.55c0,3-.11,6.69-.34,11l1.47,5v.11l4.42-.34,14.27.8q-.45,4.18-.68,10.87L19.71,42l-.46,5.55,1.14,5.55-.57,5.55.46,5.55-.46,5.55a79.47,79.47,0,0,1,.57,8.6v2.27c0,.23,1.73.57,5.21,1h3.73a57.74,57.74,0,0,1,6.46.79,69.05,69.05,0,0,1,10-1.58l.57-5.67-.45-5.55A34.16,34.16,0,0,0,47,61.84V59.46q-.33-7.12-.56-17.44l.45-5.55a82.18,82.18,0,0,0-1-11.21l2.83-.12h5.44l6.34-.34,4.42.8c.3,0,.52-2.31.68-6.91l.11-10.31-.34-4.53q0-.11-5.55-1L55.16,3l-5.89-.69Z"/></g></g></svg>